<svg width="38" height="38" viewBox="0 0 38 38" fill="none" xmlns="http://www.w3.org/2000/svg">
<path d="M3.5625 32.0625H24.9375" stroke="white" stroke-width="2" stroke-linecap="round" stroke-linejoin="round"/>
<path d="M2.51252 20.8357L8.10793 26.0815C8.85344 26.7803 9.80446 27.2202 10.8198 27.3358C11.8351 27.4512 12.8607 27.2362 13.7441 26.7226L36.2187 13.656L33.4518 10.2744C32.7341 9.39707 31.7263 8.8054 30.6104 8.60618C29.4946 8.40695 28.3443 8.61334 27.3672 9.18806L20.7812 13.0622L11.8749 10.0935L9.42583 11.1431C9.24261 11.2216 9.08209 11.345 8.9591 11.5019C8.83611 11.6587 8.75458 11.8441 8.72204 12.0407C8.6895 12.2374 8.70698 12.4391 8.77291 12.6272C8.83883 12.8153 8.95104 12.9839 9.09921 13.1172L13.6562 17.2184L9.4999 19.5934L5.34365 17.8122L2.85692 18.8779C2.67558 18.9557 2.51645 19.0774 2.39393 19.232C2.2714 19.3867 2.18933 19.5694 2.15517 19.7636C2.12098 19.9581 2.13575 20.1577 2.19814 20.345C2.26054 20.5322 2.36858 20.7008 2.51252 20.8357Z" stroke="white" stroke-width="2" stroke-linecap="round" stroke-linejoin="round"/>
</svg>
