<svg width="50" height="50" viewBox="0 0 50 50" fill="none" xmlns="http://www.w3.org/2000/svg">
<path d="M4.6875 42.1875H32.8125" stroke="black" stroke-width="2" stroke-linecap="round" stroke-linejoin="round"/>
<path d="M3.30585 27.4154L10.6682 34.3177C11.6492 35.2372 12.9005 35.816 14.2365 35.9681C15.5725 36.12 16.9218 35.837 18.0842 35.1612L47.6561 17.9683L44.0154 13.5189C43.0711 12.3645 41.745 11.586 40.2767 11.3239C38.8086 11.0617 37.295 11.3333 36.0094 12.0895L27.3436 17.1871L15.6248 13.2808L12.4023 14.6619C12.1612 14.7652 11.95 14.9276 11.7882 15.134C11.6264 15.3404 11.5191 15.5842 11.4763 15.843C11.4335 16.1018 11.4565 16.3672 11.5432 16.6147C11.6299 16.8622 11.7776 17.084 11.9725 17.2594L17.9685 22.6558L12.4998 25.7808L7.03102 23.437L3.759 24.8393C3.52039 24.9416 3.31102 25.1018 3.14981 25.3052C2.98858 25.5087 2.8806 25.7491 2.83564 26.0047C2.79066 26.2606 2.8101 26.5233 2.89218 26.7697C2.97429 27.016 3.11646 27.2379 3.30585 27.4154Z" stroke="black" stroke-width="2" stroke-linecap="round" stroke-linejoin="round"/>
</svg>
