<svg width="40" height="40" viewBox="0 0 40 40" fill="none" xmlns="http://www.w3.org/2000/svg">
<path d="M23.75 7.5V9.29687L23.8672 9.53125L25.1563 12.5H14.2969L13.9062 13.0469L10.5078 17.8515C9.75098 17.6172 8.95508 17.5 8.125 17.5C3.64747 17.5 0 21.1425 0 25.625C0 30.1075 3.64258 33.75 8.125 33.75C12.3926 33.75 15.8838 30.4345 16.2109 26.25H20.5078L20.8985 25.7032L26.9922 16.7187L27.8125 18.5937C25.3857 20.0048 23.75 22.6367 23.75 25.625C23.75 30.0878 27.4122 33.75 31.875 33.75C36.3378 33.75 40 30.0878 40 25.625C40 21.1622 36.3378 17.5 31.875 17.5C31.2743 17.5 30.6837 17.5683 30.1172 17.6953L26.7578 10H30.625C30.9815 10 31.25 10.2685 31.25 10.625C31.25 10.9814 30.9815 11.25 30.625 11.25V13.75C32.334 13.75 33.75 12.334 33.75 10.625C33.75 8.91602 32.334 7.5 30.625 7.5H23.75ZM10 8.75V11.25H17.5L16.25 8.75H10ZM16.836 15H25.1563L20.1172 22.4218L16.836 15ZM14.6484 16.25L17.9297 23.75H7.5V26.25H13.6719C13.3545 29.0527 11.0107 31.25 8.125 31.25C5.02442 31.25 2.5 28.7257 2.5 25.625C2.5 22.5243 5.02442 20 8.125 20C10.0732 20 11.8017 20.9962 12.8125 22.5H15.625C15.0244 21.0595 14.0381 19.8242 12.7734 18.9453L14.6484 16.25ZM31.875 20C34.9757 20 37.5 22.5243 37.5 25.625C37.5 28.7257 34.9757 31.25 31.875 31.25C28.7743 31.25 26.25 28.7257 26.25 25.625C26.25 23.6572 27.29 21.9433 28.8282 20.9375L31.3672 26.7578L33.6328 25.7422L31.1718 20.0782C31.4063 20.0488 31.6357 20 31.875 20Z" fill="#062551"/>
</svg>
