<svg width="18" height="19" viewBox="0 0 18 19" fill="none" xmlns="http://www.w3.org/2000/svg">
<g clip-path="url(#clip0_2310_2833)">
<mask id="mask0_2310_2833" style="mask-type:luminance" maskUnits="userSpaceOnUse" x="0" y="0" width="18" height="19">
<path d="M18 0.5H0V18.5H18V0.5Z" fill="white"/>
</mask>
<g mask="url(#mask0_2310_2833)">
<path d="M14.25 16.2499H3.75C3.55108 16.2499 3.36032 16.171 3.21967 16.0303C3.07902 15.8896 3 15.6988 3 15.4999V8.74993H0.75L8.49525 1.70894C8.63332 1.5833 8.81332 1.51367 9 1.51367C9.18668 1.51367 9.36668 1.5833 9.50475 1.70894L17.25 8.74993H15V15.4999C15 15.6988 14.9209 15.8896 14.7803 16.0303C14.6397 16.171 14.4489 16.2499 14.25 16.2499ZM4.5 14.7499H13.5V7.36769L9 3.27719L4.5 7.36769V14.7499Z" fill="#737373"/>
</g>
</g>
<defs>
<clipPath id="clip0_2310_2833">
<rect width="18" height="18" fill="white" transform="translate(0 0.5)"/>
</clipPath>
</defs>
</svg>
