<svg width="40" height="40" viewBox="0 0 40 40" fill="none" xmlns="http://www.w3.org/2000/svg">
<path d="M30 5C27.9443 5 26.25 6.69433 26.25 8.75C26.25 10.8057 27.9443 12.5 30 12.5C32.0557 12.5 33.75 10.8057 33.75 8.75C33.75 6.69433 32.0557 5 30 5ZM10.0391 5.27343L8.59375 7.26563L16.4844 13.0078C16.3477 13.1543 16.1865 13.291 16.0547 13.4375C14.4336 15.21 14.7607 18.081 16.7578 19.414L21.3672 22.461L16.6016 25.2735L6.875 19.6875L5.625 21.875L27.539 34.4532C27.5782 34.4678 27.6172 34.4825 27.6563 34.4922C27.6563 34.4922 28.54 34.9218 29.6875 35C30.835 35.0782 32.4658 34.7462 33.5157 33.3203L31.5235 31.836C31.0645 32.461 30.5322 32.544 29.8828 32.5C29.2968 32.461 28.8818 32.3047 28.789 32.2657L28.6718 32.2265L19.0625 26.7187L22.6172 24.6093C24.1553 23.6963 24.2237 21.3867 22.7343 20.3907L18.164 17.3437C17.3975 16.831 17.2705 15.7959 17.8907 15.1172C18.5498 14.3945 19.2822 13.6182 19.961 12.9688C20.9375 12.0312 22.2217 11.6016 23.2422 11.4062C23.5157 11.3525 23.711 11.5381 23.711 11.8359L23.75 16.836V17.4218L24.2578 17.8125L29.2187 21.6015L30.7422 19.6485L26.25 16.2109L26.211 11.8359C26.2012 10.0342 24.5263 8.59863 22.7343 8.94532C21.4063 9.2041 19.6875 9.78515 18.2422 11.1719L10.0391 5.27343ZM30 7.5C30.7032 7.5 31.25 8.04687 31.25 8.75C31.25 9.45313 30.7032 10 30 10C29.2968 10 28.75 9.45313 28.75 8.75C28.75 8.04687 29.2968 7.5 30 7.5Z" fill="#062551"/>
</svg>
