<svg width="40" height="40" viewBox="0 0 40 40" fill="none" xmlns="http://www.w3.org/2000/svg">
<path d="M20 3.75C13.1103 3.75 7.5 9.36035 7.5 16.25C7.5 20.8545 10.0293 24.8633 13.75 27.0313V27.5L13.7109 28.75H13.75C13.8086 28.75 14.9853 28.7842 16.2109 29.5313C17.295 30.1905 18.4327 31.294 18.711 33.75H8.75V36.25H31.25V33.75H21.289C21.5673 31.294 22.705 30.1905 23.789 29.5313C25.0147 28.7842 26.1913 28.75 26.25 28.75H26.289L26.25 27.5V27.0313C29.9707 24.8633 32.5 20.8545 32.5 16.25C32.5 9.36035 26.8897 3.75 20 3.75ZM20 6.25C25.5372 6.25 30 10.7129 30 16.25C30 21.7872 25.5372 26.25 20 26.25C14.4629 26.25 10 21.7872 10 16.25C10 10.7129 14.4629 6.25 20 6.25ZM23.75 13.75C23.0615 13.75 22.5 14.3115 22.5 15C22.5 15.6885 23.0615 16.25 23.75 16.25C24.4385 16.25 25 15.6885 25 15C25 14.3115 24.4385 13.75 23.75 13.75ZM21.25 16.25C20.5615 16.25 20 16.8115 20 17.5C20 18.1885 20.5615 18.75 21.25 18.75C21.9385 18.75 22.5 18.1885 22.5 17.5C22.5 16.8115 21.9385 16.25 21.25 16.25ZM25 17.5C24.3115 17.5 23.75 18.0615 23.75 18.75C23.75 19.4385 24.3115 20 25 20C25.6885 20 26.25 19.4385 26.25 18.75C26.25 18.0615 25.6885 17.5 25 17.5ZM18.75 18.75C18.0615 18.75 17.5 19.3115 17.5 20C17.5 20.6885 18.0615 21.25 18.75 21.25C19.4385 21.25 20 20.6885 20 20C20 19.3115 19.4385 18.75 18.75 18.75ZM22.5 20C21.8115 20 21.25 20.5615 21.25 21.25C21.25 21.9385 21.8115 22.5 22.5 22.5C23.1885 22.5 23.75 21.9385 23.75 21.25C23.75 20.5615 23.1885 20 22.5 20ZM19.1015 28.75H20.8985C20.5713 29.1212 20.2735 29.5263 20 30C19.7265 29.5263 19.4287 29.1212 19.1015 28.75Z" fill="#062551"/>
</svg>
