<svg width="26" height="26" viewBox="0 0 26 26" fill="none" xmlns="http://www.w3.org/2000/svg">
<path d="M3.25 13L2.4375 8.9375L4.875 8.9375L6.5 10.5625L10.5625 10.5625L8.9375 2.4375L11.375 2.4375L15.4375 10.5625L21.125 10.5739C21.7715 10.5739 22.3914 10.8307 22.8486 11.2879C23.3057 11.745 23.5625 12.365 23.5625 13.0115C23.5625 13.6579 23.3057 14.2779 22.8486 14.735C22.3914 15.1921 21.7715 15.449 21.125 15.449L15.4375 15.4604L11.375 23.5854L8.9375 23.5854L10.5625 15.4604L6.5 15.4604L4.875 17.0625L2.4375 17.0625L3.25 13Z" fill="white" stroke="white" stroke-linecap="round" stroke-linejoin="round"/>
</svg>
