<svg width="40" height="40" viewBox="0 0 40 40" fill="none" xmlns="http://www.w3.org/2000/svg">
<mask id="mask0_176_908" style="mask-type:luminance" maskUnits="userSpaceOnUse" x="0" y="0" width="40" height="40">
<path d="M40 0H0V40H40V0Z" fill="white"/>
</mask>
<g mask="url(#mask0_176_908)">
<path d="M6.66667 11.6667H26.6667C27.1087 11.6667 27.5327 11.8423 27.8452 12.1548C28.1577 12.4674 28.3333 12.8913 28.3333 13.3333V20.8333C28.3333 21.9383 27.8943 22.9982 27.113 23.7797C26.3315 24.561 25.2717 25 24.1667 25H23.3333C22.4493 25 21.6015 24.6488 20.9763 24.0237C20.3512 23.3985 20 22.5507 20 21.6667C20 20.7827 19.6488 19.9348 19.0237 19.3097C18.3985 18.6845 17.5507 18.3333 16.6667 18.3333C15.7826 18.3333 14.9348 18.6845 14.3096 19.3097C13.6845 19.9348 13.3333 20.7827 13.3333 21.6667C13.3333 22.5507 12.9822 23.3985 12.357 24.0237C11.7319 24.6488 10.8841 25 10 25H9.16667C8.0616 25 7.00178 24.561 6.22038 23.7797C5.43898 22.9982 5 21.9383 5 20.8333V13.3333C5 12.8913 5.1756 12.4674 5.48815 12.1548C5.80072 11.8423 6.22463 11.6667 6.66667 11.6667Z" stroke="#062551" stroke-width="3" stroke-linecap="round" stroke-linejoin="round"/>
<path d="M16.6666 28.3333C16.6666 29.2173 17.0178 30.0652 17.643 30.6903C18.2681 31.3155 19.116 31.6667 20 31.6667H25.8333C28.2645 31.6667 30.596 30.7008 32.3151 28.9818C34.0341 27.2627 35 24.9312 35 22.5V6.66667" stroke="#062551" stroke-width="3" stroke-linecap="round" stroke-linejoin="round"/>
</g>
</svg>
